<svg width="24" height="18" viewBox="0 0 24 18" fill="none" xmlns="http://www.w3.org/2000/svg">
<path d="M8.7229 17.5038C7.71181 17.5038 6.6711 17.4289 5.62416 17.2787C3.78018 17.0141 1.91355 16.1318 1.38535 15.8677L0 15.1749L1.49987 14.7237C3.13942 14.2306 4.13677 13.9247 5.37138 13.4456C4.13517 12.898 3.18241 11.913 2.72378 10.6396L2.37485 9.67074L2.66098 9.71072C2.38966 9.46058 2.17542 9.20669 2.00934 8.97581C1.4187 8.15524 1.10599 7.15258 1.17253 6.29334L1.23818 5.44764L1.79171 5.64377C1.5582 5.24042 1.38945 4.80966 1.29027 4.35818C1.04855 3.25712 1.25084 2.08738 1.86003 1.06448L2.34221 0.254843L2.98707 0.963316C5.02656 3.20426 7.60977 4.53358 10.6757 4.92274C10.5505 4.13317 10.6443 3.37118 10.9549 2.68816C11.3165 1.89288 11.9597 1.21851 12.8145 0.737819C13.7639 0.204098 14.9152 -0.0545221 16.0564 0.00960274C17.2671 0.0776435 18.3663 0.492578 19.2393 1.21035C19.6656 1.10902 19.9798 1.00084 20.4043 0.854647C20.6598 0.766699 20.9495 0.666841 21.312 0.552624L22.6477 0.131652L21.7767 2.40718C21.8341 2.40278 21.8933 2.39903 21.9552 2.39658L23.3816 2.33751L22.5385 3.39141C22.4902 3.45178 22.4779 3.46891 22.4608 3.49257C22.3928 3.58623 22.3082 3.70273 21.1511 5.11609C20.8614 5.47 20.7167 5.93095 20.7436 6.41425C20.8462 8.25086 20.5998 9.91256 20.011 11.353C19.4541 12.7158 18.591 13.885 17.4462 14.8283C16.0294 15.9953 14.2229 16.7943 12.0766 17.2029C11.0237 17.4032 9.89311 17.5038 8.7229 17.5038Z" fill="white"/>
</svg>
