<svg width="109" height="82" viewBox="0 0 109 82" fill="none" xmlns="http://www.w3.org/2000/svg">
<path d="M47.6145 17.6791C50.3091 21.4738 51.7336 25.9632 51.7336 30.6613C51.7336 42.8698 42.004 52.8022 30.0446 52.8022C18.0851 52.8022 8.35547 42.8698 8.35547 30.6613C8.35547 18.4527 18.0851 8.52026 30.0446 8.52026C34.6393 8.52026 39.0307 9.96991 42.7441 12.7125" stroke="#05C2DF" stroke-width="1.00668" stroke-linejoin="round"/>
<path d="M30.0449 21.806C34.8122 21.806 38.709 25.7694 38.709 30.6615C38.709 35.5536 34.8119 39.517 30.0449 39.517C25.2781 39.5168 21.3809 35.5535 21.3809 30.6615C21.3809 25.7695 25.2778 21.8062 30.0449 21.806Z" stroke="#05C2DF" stroke-width="1.00668"/>
<path d="M107.077 0.503296C98.0145 0.503296 90.6413 8.03031 90.6413 17.282V26.0249C88.4739 26.6812 86.4793 27.8679 84.8164 29.5201" stroke="#05C2DF" stroke-width="1.00668"/>
<path d="M46.7323 55.534C50.9907 52.5472 54.4479 48.4529 56.6997 43.6597M89.469 52.096C87.8517 50.5886 86.0321 49.3318 84.0599 48.3602L83.7307 48.198M81.0979 35.8531C80.728 37.1603 80.5405 38.5058 80.5405 39.8527V46.6266L78.8552 45.7963C72.3646 42.5989 65.1967 40.7691 57.9909 40.4456C59.0249 37.3761 59.5877 34.0849 59.5877 30.6618C59.5877 14.0326 46.335 0.503784 30.0454 0.503784C13.7559 0.503784 0.50293 14.0326 0.50293 30.6618C0.50293 47.2909 13.7556 60.8197 30.0454 60.8197C35.0323 60.8197 39.7336 59.5499 43.8583 57.3132C45.3941 58.6723 70.7657 80.9398 84.0361 80.9398C84.1983 80.9398 84.36 80.9363 84.5186 80.9296C97.7979 80.3638 107.837 69.2478 108.258 68.7749" stroke="#05C2DF" stroke-width="1.00668"/>
</svg>
