<svg width="86" height="84" viewBox="0 0 86 84" fill="none" xmlns="http://www.w3.org/2000/svg">
<g clip-path="url(#clip0_3495_4339)">
<path d="M36.2988 0.5C36.8266 0.500043 37.2393 0.918384 37.2393 1.41602V6.16309H43.9824C44.5102 6.16309 44.9229 6.58144 44.9229 7.0791V13.7139H48.8047V7.0791C48.8047 6.58148 49.2173 6.16321 49.7451 6.16309H76.6387C77.1664 6.16309 77.5791 6.58144 77.5791 7.0791V80.6689H24.793V78.8086C24.7927 77.7423 23.9147 76.8936 22.8516 76.8936C21.7886 76.8938 20.9114 77.7424 20.9111 78.8086V80.6689H9.125L8.46484 80.668V27.8428C8.46484 27.3452 8.87749 26.9269 9.40527 26.9268H21.9111V14.6289C21.9113 14.1313 22.3247 13.7139 22.8525 13.7139H27.6748V7.0791C27.6748 6.58141 28.0873 6.16309 28.6152 6.16309H35.3584V1.41602C35.3584 0.918356 35.7711 0.5 36.2988 0.5Z" stroke="#05C2DF" stroke-linecap="round"/>
<path d="M43.7598 77.5V51.0731" stroke="#05C2DF" stroke-linecap="round"/>
<path d="M49.8652 77.4269V51" stroke="#05C2DF" stroke-linecap="round"/>
<path d="M55.9707 77.4269V51" stroke="#05C2DF" stroke-linecap="round"/>
<path d="M57.1484 13.4636C57.8101 13.4636 58.3398 13.9898 58.3398 14.6296V16.5173C58.3396 17.157 57.8101 17.6824 57.1484 17.6824C56.4868 17.6822 55.9582 17.1568 55.958 16.5173V14.6296L55.9639 14.5105C56.0245 13.9257 56.5283 13.4637 57.1484 13.4636Z" fill="#05C2DF" stroke="#05040B" stroke-width="0.5" stroke-linecap="round"/>
<path d="M62.9121 13.4636C63.5738 13.4636 64.1035 13.9898 64.1035 14.6296V16.5173C64.1033 17.157 63.5738 17.6824 62.9121 17.6824C62.2505 17.6822 61.7219 17.1568 61.7217 16.5173V14.6296L61.7275 14.5105C61.7882 13.9257 62.292 13.4637 62.9121 13.4636Z" fill="#05C2DF" stroke="#05040B" stroke-width="0.5" stroke-linecap="round"/>
<path d="M68.6748 13.4636C69.3365 13.4636 69.8662 13.9898 69.8662 14.6296V16.5173C69.8659 17.157 69.3364 17.6824 68.6748 17.6824C68.0132 17.6822 67.4845 17.1568 67.4844 16.5173V14.6296L67.4902 14.5105C67.5509 13.9257 68.0547 13.4637 68.6748 13.4636Z" fill="#05C2DF" stroke="#05040B" stroke-width="0.5" stroke-linecap="round"/>
<path d="M57.1484 22.9016C57.8101 22.9016 58.3398 23.4278 58.3398 24.0676V25.9553C58.3397 26.5951 57.8101 27.1204 57.1484 27.1204C56.4869 27.1202 55.9582 26.595 55.958 25.9553V24.0676C55.958 23.4278 56.4869 22.9017 57.1484 22.9016Z" fill="#05C2DF" stroke="#05040B" stroke-width="0.5" stroke-linecap="round"/>
<path d="M62.9121 22.9016C63.5738 22.9016 64.1035 23.4278 64.1035 24.0676V25.9553C64.1033 26.5951 63.5738 27.1204 62.9121 27.1204C62.2505 27.1202 61.7219 26.595 61.7217 25.9553V24.0676C61.7217 23.4278 62.2506 22.9017 62.9121 22.9016Z" fill="#05C2DF" stroke="#05040B" stroke-width="0.5" stroke-linecap="round"/>
<path d="M68.6748 22.9016C69.3365 22.9016 69.8662 23.4278 69.8662 24.0676V25.9553C69.866 26.5951 69.3365 27.1204 68.6748 27.1204C68.0132 27.1202 67.4845 26.595 67.4844 25.9553V24.0676C67.4844 23.4278 68.0133 22.9017 68.6748 22.9016Z" fill="#05C2DF" stroke="#05040B" stroke-width="0.5" stroke-linecap="round"/>
<path d="M57.1484 32.34C57.8101 32.34 58.3398 32.8661 58.3398 33.506V35.3937C58.3397 36.0334 57.8101 36.5587 57.1484 36.5587C56.4869 36.5586 55.9582 36.0332 55.958 35.3937V33.506C55.958 32.8662 56.4869 32.3401 57.1484 32.34Z" fill="#05C2DF" stroke="#05040B" stroke-width="0.5" stroke-linecap="round"/>
<path d="M62.9121 32.34C63.5738 32.34 64.1035 32.8661 64.1035 33.506V35.3937C64.1033 36.0334 63.5738 36.5587 62.9121 36.5587C62.2505 36.5586 61.7219 36.0332 61.7217 35.3937V33.506C61.7217 32.8662 62.2506 32.3401 62.9121 32.34Z" fill="#05C2DF" stroke="#05040B" stroke-width="0.5" stroke-linecap="round"/>
<path d="M68.6748 32.34C69.3365 32.34 69.8662 32.8661 69.8662 33.506V35.3937C69.866 36.0334 69.3365 36.5587 68.6748 36.5587C68.0132 36.5586 67.4845 36.0332 67.4844 35.3937V33.506C67.4844 32.8662 68.0133 32.3401 68.6748 32.34Z" fill="#05C2DF" stroke="#05040B" stroke-width="0.5" stroke-linecap="round"/>
<path d="M16.8086 36.1152C17.4703 36.1152 18 36.6414 18 37.2812V39.1689C17.9998 39.8087 17.4703 40.334 16.8086 40.334C16.1472 40.3339 15.6183 39.8085 15.6182 39.1689V37.2812C15.6182 36.6415 16.147 36.1154 16.8086 36.1152Z" fill="#05C2DF" stroke="#05040B" stroke-width="0.5" stroke-linecap="round"/>
<path d="M22.5713 36.1152C23.233 36.1152 23.7627 36.6414 23.7627 37.2812V39.1689C23.7625 39.8087 23.233 40.334 22.5713 40.334C21.9097 40.3339 21.381 39.8085 21.3809 39.1689V37.2812C21.3809 36.6415 21.9097 36.1154 22.5713 36.1152Z" fill="#05C2DF" stroke="#05040B" stroke-width="0.5" stroke-linecap="round"/>
<path d="M28.334 36.1152C28.9956 36.1152 29.5254 36.6414 29.5254 37.2812V39.1689C29.5252 39.8087 28.9957 40.334 28.334 40.334C27.6724 40.3339 27.1437 39.8085 27.1436 39.1689V37.2812C27.1436 36.6415 27.6724 36.1154 28.334 36.1152Z" fill="#05C2DF" stroke="#05040B" stroke-width="0.5" stroke-linecap="round"/>
<path d="M16.8086 45.5533C17.4703 45.5533 18 46.0795 18 46.7194V48.6071C17.9998 49.2468 17.4703 49.7721 16.8086 49.7721C16.1472 49.772 15.6183 49.2466 15.6182 48.6071V46.7194C15.6182 46.0796 16.147 45.5535 16.8086 45.5533Z" fill="#05C2DF" stroke="#05040B" stroke-width="0.5" stroke-linecap="round"/>
<path d="M22.5713 45.5533C23.233 45.5533 23.7627 46.0795 23.7627 46.7194V48.6071C23.7625 49.2468 23.233 49.7721 22.5713 49.7721C21.9097 49.772 21.381 49.2466 21.3809 48.6071V46.7194C21.3809 46.0796 21.9097 45.5535 22.5713 45.5533Z" fill="#05C2DF" stroke="#05040B" stroke-width="0.5" stroke-linecap="round"/>
<path d="M28.334 45.5533C28.9956 45.5533 29.5254 46.0795 29.5254 46.7194V48.6071C29.5252 49.2468 28.9957 49.7721 28.334 49.7721C27.6724 49.772 27.1437 49.2466 27.1436 48.6071V46.7194C27.1436 46.0796 27.6724 45.5535 28.334 45.5533Z" fill="#05C2DF" stroke="#05040B" stroke-width="0.5" stroke-linecap="round"/>
<path d="M16.8086 54.9916C17.4703 54.9916 18 55.5177 18 56.1576V58.0453C17.9998 58.685 17.4703 59.2103 16.8086 59.2103C16.1472 59.2102 15.6183 58.6849 15.6182 58.0453V56.1576C15.6182 55.5178 16.147 54.9917 16.8086 54.9916Z" fill="#05C2DF" stroke="#05040B" stroke-width="0.5" stroke-linecap="round"/>
<path d="M22.5713 54.9916C23.233 54.9916 23.7627 55.5177 23.7627 56.1576V58.0453C23.7625 58.685 23.233 59.2103 22.5713 59.2103C21.9097 59.2102 21.381 58.685 21.3809 58.0453V56.1576C21.3809 55.5178 21.9097 54.9917 22.5713 54.9916Z" fill="#05C2DF" stroke="#05040B" stroke-width="0.5" stroke-linecap="round"/>
<path d="M28.334 54.9916C28.9956 54.9916 29.5254 55.5177 29.5254 56.1576V58.0453C29.5252 58.685 28.9957 59.2103 28.334 59.2103C27.6724 59.2102 27.1437 58.685 27.1436 58.0453V56.1576C27.1436 55.5178 27.6724 54.9917 28.334 54.9916Z" fill="#05C2DF" stroke="#05040B" stroke-width="0.5" stroke-linecap="round"/>
<path d="M16.8086 64.4297C17.4703 64.4297 18 64.9558 18 65.5957V67.4834C17.9998 68.1232 17.4703 68.6484 16.8086 68.6484C16.1472 68.6483 15.6183 68.1231 15.6182 67.4834V65.5957C15.6182 64.9559 16.147 64.4298 16.8086 64.4297Z" fill="#05C2DF" stroke="#05040B" stroke-width="0.5" stroke-linecap="round"/>
<path d="M22.5713 64.4297C23.233 64.4297 23.7627 64.9558 23.7627 65.5957V67.4834C23.7625 68.1232 23.233 68.6484 22.5713 68.6484C21.9097 68.6483 21.381 68.1231 21.3809 67.4834V65.5957C21.3809 64.9559 21.9097 64.4298 22.5713 64.4297Z" fill="#05C2DF" stroke="#05040B" stroke-width="0.5" stroke-linecap="round"/>
<path d="M28.334 64.4297C28.9956 64.4297 29.5254 64.9558 29.5254 65.5957V67.4834C29.5252 68.1232 28.9957 68.6484 28.334 68.6484C27.6724 68.6483 27.1437 68.1231 27.1436 67.4834V65.5957C27.1436 64.9559 27.6724 64.4298 28.334 64.4297Z" fill="#05C2DF" stroke="#05040B" stroke-width="0.5" stroke-linecap="round"/>
<path d="M68.6748 41.7781C69.3365 41.7781 69.8662 42.3042 69.8662 42.9441V44.8318C69.866 45.4715 69.3365 45.9968 68.6748 45.9968C68.0132 45.9967 67.4845 45.4713 67.4844 44.8318V42.9441C67.4844 42.3043 68.0133 41.7782 68.6748 41.7781Z" fill="#05C2DF" stroke="#05040B" stroke-width="0.5" stroke-linecap="round"/>
<path d="M68.6748 51.2163C69.3365 51.2163 69.8662 51.7425 69.8662 52.3823V54.27C69.866 54.9098 69.3365 55.4351 68.6748 55.4351C68.0132 55.4349 67.4846 54.9095 67.4844 54.27V52.3823C67.4844 51.7425 68.0133 51.2164 68.6748 51.2163Z" fill="#05C2DF" stroke="#05040B" stroke-width="0.5" stroke-linecap="round"/>
<path d="M68.6748 60.6545C69.3365 60.6545 69.8662 61.1807 69.8662 61.8206V63.7083C69.866 64.348 69.3365 64.8733 68.6748 64.8733C68.0132 64.8732 67.4845 64.3478 67.4844 63.7083V61.8206L67.4902 61.7014C67.5509 61.1166 68.0547 60.6547 68.6748 60.6545Z" fill="#05C2DF" stroke="#05040B" stroke-width="0.5" stroke-linecap="round"/>
<path d="M68.6748 70.0927C69.3365 70.0927 69.8662 70.6188 69.8662 71.2587V73.1464C69.866 73.7861 69.3365 74.3114 68.6748 74.3114C68.0132 74.3113 67.4845 73.7859 67.4844 73.1464V71.2587C67.4844 70.6189 68.0133 70.0928 68.6748 70.0927Z" fill="#05C2DF" stroke="#05040B" stroke-width="0.5" stroke-linecap="round"/>
<path d="M42.056 20H30.5303" stroke="#05C2DF" stroke-linecap="round"/>
<path fill-rule="evenodd" clip-rule="evenodd" d="M56.9707 42C56.4184 42 55.9707 42.4477 55.9707 43V44H58.006V43C58.006 42.4477 57.5583 42 57.006 42H56.9707Z" fill="#05C2DF"/>
<path fill-rule="evenodd" clip-rule="evenodd" d="M63.0762 42C62.5239 42 62.0762 42.4477 62.0762 43V44H64.1115V43C64.1115 42.4477 63.6637 42 63.1115 42H63.0762Z" fill="#05C2DF"/>
</g>
<defs>
<clipPath id="clip0_3495_4339">
<rect width="85.4824" height="84" fill="white"/>
</clipPath>
</defs>
</svg>
