<svg xmlns="http://www.w3.org/2000/svg" width="98" height="81" fill="none" viewBox="0 0 98 81"><path stroke="#05c2df" d="M45.014 28.079v-7.01m16.632 14.295h8.11m-37.8 10.447h4.399m17.593 14.708v-7.01"/><rect width="24.567" height="24.567" x="36.717" y="28.442" stroke="#05c2df" rx="3.5"/><rect width="15.495" height="15.495" x="41.39" y="33.115" stroke="#05c2df" rx="3.5"/><rect width="18.519" height="18.519" x="69.981" y="1.5" stroke="#05c2df" rx="3.5"/><rect width="9.997" height="9.997" x="74.38" y="5.899" stroke="#05c2df" rx="2.5"/><rect width="18.519" height="18.519" x="9.5" y="1.5" stroke="#05c2df" rx="3.5"/><rect width="9.997" height="9.997" x="13.898" y="5.899" stroke="#05c2df" rx="2.5"/><rect width="18.519" height="18.519" x="10.325" y="61.431" stroke="#05c2df" rx="3.5"/><rect width="9.997" height="9.997" x="14.724" y="65.83" stroke="#05c2df" rx="2.5"/><rect width="18.519" height="18.519" x="69.981" y="61.431" stroke="#05c2df" rx="3.5"/><rect width="9.997" height="9.997" x="74.38" y="65.83" stroke="#05c2df" rx="2.5"/><path stroke="#05c2df" d="M54.224 28.079V10.897h15.12M36.354 38.113H18.896V20.52M61.784 41.962h17.182v18.97M45.564 53.509V70.69H29.205"/><circle cx="45.013" cy="18.595" r="1.974" stroke="#05c2df"/><circle cx="72.23" cy="35.364" r="1.974" stroke="#05c2df"/><circle cx="29.619" cy="45.811" r="1.974" stroke="#05c2df"/><circle cx="53.811" cy="62.856" r="1.974" stroke="#05c2df"/></svg>