<svg xmlns="http://www.w3.org/2000/svg" width="109" height="82" fill="none" viewBox="0 0 109 82"><path stroke="#05c2df" stroke-linejoin="round" stroke-width="1.007" d="M47.615 17.68c2.694 3.794 4.119 8.283 4.119 12.981 0 12.209-9.73 22.141-21.69 22.141-11.959 0-21.689-9.932-21.689-22.14 0-12.21 9.73-22.142 21.69-22.142 4.594 0 8.986 1.45 12.7 4.193"/><path stroke="#05c2df" stroke-width="1.007" d="M30.045 21.806c4.767 0 8.664 3.963 8.664 8.856s-3.897 8.855-8.664 8.855-8.664-3.964-8.664-8.856 3.897-8.855 8.664-8.855ZM107.077.503c-9.063 0-16.436 7.527-16.436 16.779v8.743a14 14 0 0 0-5.825 3.495"/><path stroke="#05c2df" stroke-width="1.007" d="M46.732 55.534A30.2 30.2 0 0 0 56.7 43.66m32.77 8.436a22.5 22.5 0 0 0-5.41-3.736l-.328-.162m-2.633-12.345a14.7 14.7 0 0 0-.557 4v6.774l-1.686-.83a52.8 52.8 0 0 0-20.864-5.35 30.6 30.6 0 0 0 1.597-9.784c0-16.63-13.253-30.16-29.543-30.16S.503 14.034.503 30.663 13.756 60.82 30.045 60.82c4.987 0 9.689-1.27 13.813-3.507 1.536 1.36 26.908 23.627 40.178 23.627q.244 0 .483-.01c13.279-.566 23.318-11.682 23.739-12.155"/></svg>