<svg xmlns="http://www.w3.org/2000/svg" width="107" height="80" fill="none" viewBox="0 0 107 80"><rect width="84.397" height="59.592" x="21.225" y="1.92" stroke="#05c2df" rx="3.5"/><path stroke="#05c2df" d="M20.725 51.571h85.396"/><path stroke="#05c2df" stroke-linecap="round" d="M59.235 56.778h7.852"/><path stroke="#05c2df" d="M46.219 62.039h33.888v5.154H46.219ZM35.805 73.4h54.716v5.154H35.805ZM80.47 67.719l8.723 5.154H37.131l8.725-5.154Z"/><path fill="#05c2df" d="m43.981 13.727 8 22.364h.09l8.001-22.364h.773L52.527 37h-1l-8.319-23.273ZM65.518 37V13.727h6.818q1.955 0 3.455.83a6 6 0 0 1 2.364 2.318q.863 1.488.863 3.489 0 1.977-.863 3.465a6 6 0 0 1-2.364 2.307q-1.5.819-3.455.819h-6.455v-.727h6.455q1.75 0 3.091-.728a5.3 5.3 0 0 0 2.102-2.046q.762-1.318.762-3.09 0-1.785-.761-3.114a5.3 5.3 0 0 0-2.102-2.057q-1.342-.739-3.092-.739h-6.09V37Zm8.864-10.59L80.109 37h-.818l-5.727-10.59Z"/></svg>