<svg xmlns="http://www.w3.org/2000/svg" width="248" height="69" fill="none" viewBox="0 0 248 69"><path fill="#fff" d="M107.278 39.055V27.419h4.148q1.358 0 2.25.494.892.495 1.335 1.352.444.852.443 1.92 0 1.074-.448 1.932a3.25 3.25 0 0 1-1.341 1.352q-.892.495-2.245.495h-2.852v-1.489h2.693q.858 0 1.392-.295.534-.302.784-.819t.25-1.176-.25-1.17a1.8 1.8 0 0 0-.789-.801q-.534-.29-1.409-.29h-2.205v10.13Zm11.797-11.637v11.636h-1.699V27.419Zm4.825 11.83a3.6 3.6 0 0 1-1.5-.307 2.5 2.5 0 0 1-1.062-.904q-.386-.59-.386-1.448 0-.74.284-1.216.284-.477.767-.756a4 4 0 0 1 1.079-.42q.597-.142 1.216-.216l1.273-.148q.488-.063.71-.199.222-.135.222-.443v-.04q0-.744-.421-1.153-.414-.41-1.238-.41-.858 0-1.353.381-.488.375-.676.836l-1.596-.364q.284-.795.829-1.284a3.4 3.4 0 0 1 1.267-.716 5 5 0 0 1 1.506-.227q.523 0 1.108.125.59.12 1.102.443.517.324.847.926.329.597.329 1.551v5.795h-1.659v-1.193h-.068q-.165.33-.494.648-.33.319-.847.529t-1.239.21m.37-1.364q.704 0 1.204-.278.506-.279.767-.727.267-.455.267-.972v-1.125q-.09.09-.352.17-.255.075-.585.131l-.642.097q-.313.04-.523.068a4.2 4.2 0 0 0-.903.21q-.404.148-.648.426-.239.273-.239.727 0 .632.466.955.466.318 1.188.318m6.961 4.443a3.6 3.6 0 0 1-.693-.063 2.2 2.2 0 0 1-.466-.125l.409-1.391q.467.125.83.108a1 1 0 0 0 .642-.273q.284-.255.5-.835l.21-.58-3.193-8.84h1.818l2.21 6.772h.091l2.211-6.773h1.823l-3.596 9.892a4 4 0 0 1-.636 1.153 2.5 2.5 0 0 1-.921.716q-.534.24-1.239.24m13.377-14.909 3.238 9.478h.131l3.239-9.478h1.898l-4.188 11.637h-2.028l-4.188-11.637Zm10.05 11.637v-8.727h1.698v8.727Zm.858-10.074a1.08 1.08 0 0 1-.762-.295.96.96 0 0 1-.312-.716.95.95 0 0 1 .312-.716q.318-.302.762-.302.443 0 .755.302a.94.94 0 0 1 .318.716.95.95 0 0 1-.318.716q-.312.295-.755.295m6.393 10.244q-1.057 0-1.886-.54-.824-.545-1.296-1.55-.465-1.012-.466-2.427 0-1.415.472-2.42.477-1.006 1.307-1.54a3.4 3.4 0 0 1 1.88-.534q.813 0 1.307.273.5.267.773.625.278.357.432.63h.102v-4.324h1.699v11.636h-1.659v-1.358h-.142q-.154.279-.443.637-.285.358-.785.625t-1.295.267m.375-1.449q.733 0 1.239-.386.511-.392.772-1.085.267-.693.267-1.614 0-.909-.261-1.59-.261-.683-.767-1.063-.506-.381-1.25-.381-.767 0-1.278.398t-.773 1.085a4.4 4.4 0 0 0-.256 1.551q0 .875.262 1.574.26.699.772 1.108.517.403 1.273.403m10.135 1.455q-1.29 0-2.222-.551a3.74 3.74 0 0 1-1.431-1.563q-.5-1.011-.5-2.37 0-1.339.5-2.363a3.9 3.9 0 0 1 1.409-1.597q.909-.573 2.125-.573.738 0 1.431.244a3.5 3.5 0 0 1 1.245.767q.55.523.869 1.358.318.83.318 2.017v.602h-6.937V33.93h5.272q0-.67-.272-1.187a2.07 2.07 0 0 0-.767-.824q-.49-.3-1.148-.3-.716 0-1.25.352a2.36 2.36 0 0 0-.818.91q-.284.555-.284 1.209v.994q0 .875.307 1.489.312.613.869.937.557.318 1.301.318.482 0 .881-.136a1.825 1.825 0 0 0 1.13-1.108l1.608.29q-.193.71-.693 1.244a3.35 3.35 0 0 1-1.244.824q-.745.29-1.699.29m9.305 0q-1.227 0-2.142-.563a3.8 3.8 0 0 1-1.42-1.574q-.506-1.011-.506-2.363 0-1.359.506-2.375a3.8 3.8 0 0 1 1.42-1.58q.915-.562 2.142-.562t2.142.562 1.421 1.58.505 2.375q0 1.353-.505 2.363a3.8 3.8 0 0 1-1.421 1.574q-.914.563-2.142.563m.006-1.426q.795 0 1.318-.42.523-.421.773-1.12.255-.7.256-1.54 0-.835-.256-1.534a2.5 2.5 0 0 0-.773-1.13q-.523-.427-1.318-.427-.8 0-1.33.426a2.54 2.54 0 0 0-.778 1.13q-.25.7-.25 1.535 0 .84.25 1.54.255.699.778 1.12.53.42 1.33.42"/><path stroke="#05c2df" stroke-miterlimit="1.517" stroke-width="2" d="M51 6.055c-4.88-3.412-10.087-4.648-16-5S23.56 2.058 18.321 4.867a32.7 32.7 0 0 0-12.676 12.18A33.4 33.4 0 0 0 1 34.135a33.4 33.4 0 0 0 4.727 17.066A32.7 32.7 0 0 0 18.46 63.317a32.04 32.04 0 0 0 17.066 3.671c5.912-.383 11.609-2.5 16.473-5.935" opacity=".45"/><path stroke="#05c2df" stroke-miterlimit="10" d="M34.03 60.21c14.588 0 26.413-11.79 26.413-26.335 0-14.544-11.825-26.335-26.412-26.335S7.618 19.33 7.618 33.875 19.443 60.21 34.031 60.21Z"/><path fill="#05c2df" d="M86 11.055H56v2h30ZM86 55.055H56v2h30Z" opacity=".45"/><path fill="#fff" d="M45 34.055 27.75 44.447V23.662Z"/><path fill="#05c2df" d="M91 11.055h-2v2h2ZM88 11.055h-2v2h2ZM94 11.055h-2v2h2ZM97 11.055h-2v2h2ZM100 11.055h-2v2h2ZM104 11.055h-2v2h2ZM108 11.055h-2v2h2ZM112 11.055h-2v2h2ZM117 11.055h-2v2h2ZM122 11.055h-2v2h2ZM127 11.055h-2v2h2ZM132 11.055h-2v2h2ZM137 11.055h-2v2h2ZM142 11.055h-2v2h2ZM153.6 11.285H152v1.6h1.6ZM159.6 11.285H158v1.6h1.6ZM165.6 11.285H164v1.6h1.6ZM171.3 11.485H170v1.3h1.3ZM178.3 11.485H177v1.3h1.3ZM185.3 11.485H184v1.3h1.3ZM192.3 11.485H191v1.3h1.3ZM200.3 11.485H199v1.3h1.3ZM209.3 11.485H208v1.3h1.3ZM147.6 11.285H146v1.6h1.6ZM248 11.555h-1v1h1ZM234 11.555h-1v1h1ZM221 11.555h-1v1h1ZM91 55.055h-2v2h2ZM88 55.055h-2v2h2ZM94 55.055h-2v2h2ZM97 55.055h-2v2h2ZM100 55.055h-2v2h2ZM104 55.055h-2v2h2ZM108 55.055h-2v2h2ZM112 55.055h-2v2h2ZM117 55.055h-2v2h2ZM122 55.055h-2v2h2ZM127 55.055h-2v2h2ZM132 55.055h-2v2h2ZM137 55.055h-2v2h2ZM142 55.055h-2v2h2ZM153.6 55.285H152v1.6h1.6ZM159.6 55.285H158v1.6h1.6ZM165.6 55.285H164v1.6h1.6ZM171.3 55.485H170v1.3h1.3ZM178.3 55.485H177v1.3h1.3ZM185.3 55.485H184v1.3h1.3ZM192.3 55.485H191v1.3h1.3ZM200.3 55.485H199v1.3h1.3ZM209.3 55.485H208v1.3h1.3ZM147.6 55.285H146v1.6h1.6ZM248 55.555h-1v1h1ZM234 55.555h-1v1h1ZM221 55.555h-1v1h1Z" opacity=".45"/></svg>