<svg xmlns="http://www.w3.org/2000/svg" width="86" height="84" fill="none" viewBox="0 0 86 84"><g clip-path="url(#clip0_3495_4339)"><path stroke="#05c2df" stroke-linecap="round" d="M36.299.5c.528 0 .94.418.94.916v4.747h6.743c.528 0 .94.418.94.916v6.635h3.882V7.079c0-.498.413-.916.941-.916H76.64c.527 0 .94.418.94.916v73.59H24.793v-1.86c0-1.067-.878-1.915-1.941-1.915s-1.94.848-1.94 1.915v1.86H9.125l-.661-.001V27.843c0-.498.412-.916.94-.916h12.506V14.629c0-.498.414-.915.941-.915h4.822V7.079c0-.498.413-.916.941-.916h6.743V1.416c0-.498.413-.916.94-.916Z"/><path stroke="#05c2df" stroke-linecap="round" d="M43.76 77.5V51.073"/><path stroke="#05c2df" stroke-linecap="round" d="M49.865 77.427V51"/><path stroke="#05c2df" stroke-linecap="round" d="M55.97 77.427V51"/><path fill="#05c2df" stroke="#05040b" stroke-linecap="round" stroke-width=".5" d="M57.148 13.464a1.18 1.18 0 0 1 1.191 1.166v1.888c0 .639-.529 1.164-1.19 1.164-.662 0-1.19-.525-1.191-1.165V14.63l.006-.118a1.18 1.18 0 0 1 1.185-1.047Z"/><path fill="#05c2df" stroke="#05040b" stroke-linecap="round" stroke-width=".5" d="M62.912 13.464a1.18 1.18 0 0 1 1.191 1.166v1.888c0 .639-.53 1.164-1.19 1.164-.662 0-1.191-.525-1.191-1.165V14.63l.005-.118a1.18 1.18 0 0 1 1.185-1.047Z"/><path fill="#05c2df" stroke="#05040b" stroke-linecap="round" stroke-width=".5" d="M68.675 13.464a1.18 1.18 0 0 1 1.191 1.166v1.888c0 .639-.53 1.164-1.191 1.164-.662 0-1.19-.525-1.19-1.165V14.63l.005-.118a1.18 1.18 0 0 1 1.185-1.047Z"/><path fill="#05c2df" stroke="#05040b" stroke-linecap="round" stroke-width=".5" d="M57.148 22.902a1.18 1.18 0 0 1 1.191 1.166v1.888c0 .64-.529 1.164-1.19 1.164-.662 0-1.19-.525-1.191-1.165v-1.888c0-.64.529-1.165 1.19-1.165Z"/><path fill="#05c2df" stroke="#05040b" stroke-linecap="round" stroke-width=".5" d="M62.912 22.902a1.18 1.18 0 0 1 1.191 1.166v1.888c0 .64-.53 1.164-1.19 1.164-.662 0-1.191-.525-1.191-1.165v-1.888c0-.64.529-1.165 1.19-1.165Z"/><path fill="#05c2df" stroke="#05040b" stroke-linecap="round" stroke-width=".5" d="M68.675 22.902a1.18 1.18 0 0 1 1.191 1.166v1.888c0 .64-.53 1.164-1.191 1.164-.662 0-1.19-.525-1.19-1.165v-1.888c0-.64.528-1.165 1.19-1.165Z"/><path fill="#05c2df" stroke="#05040b" stroke-linecap="round" stroke-width=".5" d="M57.148 32.34a1.18 1.18 0 0 1 1.191 1.166v1.888c0 .64-.529 1.165-1.19 1.165-.662 0-1.19-.526-1.191-1.165v-1.888c0-.64.529-1.166 1.19-1.166Z"/><path fill="#05c2df" stroke="#05040b" stroke-linecap="round" stroke-width=".5" d="M62.912 32.34a1.18 1.18 0 0 1 1.191 1.166v1.888c0 .64-.53 1.165-1.19 1.165-.662 0-1.191-.526-1.191-1.165v-1.888c0-.64.529-1.166 1.19-1.166Z"/><path fill="#05c2df" stroke="#05040b" stroke-linecap="round" stroke-width=".5" d="M68.675 32.34a1.18 1.18 0 0 1 1.191 1.166v1.888c0 .64-.53 1.165-1.191 1.165-.662 0-1.19-.526-1.19-1.165v-1.888c0-.64.528-1.166 1.19-1.166Z"/><path fill="#05c2df" stroke="#05040b" stroke-linecap="round" stroke-width=".5" d="M16.809 36.115A1.18 1.18 0 0 1 18 37.281v1.888c0 .64-.53 1.165-1.191 1.165-.662 0-1.19-.526-1.19-1.165V37.28c0-.64.528-1.166 1.19-1.166Z"/><path fill="#05c2df" stroke="#05040b" stroke-linecap="round" stroke-width=".5" d="M22.571 36.115a1.18 1.18 0 0 1 1.191 1.166v1.888c0 .64-.529 1.165-1.19 1.165-.662 0-1.191-.526-1.191-1.165V37.28c0-.64.529-1.166 1.19-1.166Z"/><path fill="#05c2df" stroke="#05040b" stroke-linecap="round" stroke-width=".5" d="M28.334 36.115a1.18 1.18 0 0 1 1.191 1.166v1.888c0 .64-.53 1.165-1.191 1.165-.662 0-1.19-.526-1.19-1.165V37.28c0-.64.528-1.166 1.19-1.166Z"/><path fill="#05c2df" stroke="#05040b" stroke-linecap="round" stroke-width=".5" d="M16.809 45.553A1.18 1.18 0 0 1 18 46.72v1.888c0 .64-.53 1.165-1.191 1.165-.662 0-1.19-.525-1.19-1.165V46.72c0-.64.528-1.166 1.19-1.166Z"/><path fill="#05c2df" stroke="#05040b" stroke-linecap="round" stroke-width=".5" d="M22.571 45.553a1.18 1.18 0 0 1 1.191 1.166v1.888c0 .64-.529 1.165-1.19 1.165-.662 0-1.191-.525-1.191-1.165V46.72c0-.64.529-1.166 1.19-1.166Z"/><path fill="#05c2df" stroke="#05040b" stroke-linecap="round" stroke-width=".5" d="M28.334 45.553a1.18 1.18 0 0 1 1.191 1.166v1.888c0 .64-.53 1.165-1.191 1.165-.662 0-1.19-.525-1.19-1.165V46.72c0-.64.528-1.166 1.19-1.166Z"/><path fill="#05c2df" stroke="#05040b" stroke-linecap="round" stroke-width=".5" d="M16.809 54.992A1.18 1.18 0 0 1 18 56.158v1.888c0 .639-.53 1.164-1.191 1.164-.662 0-1.19-.525-1.19-1.165v-1.888c0-.64.528-1.165 1.19-1.165Z"/><path fill="#05c2df" stroke="#05040b" stroke-linecap="round" stroke-width=".5" d="M22.571 54.992a1.18 1.18 0 0 1 1.191 1.166v1.888c0 .639-.529 1.164-1.19 1.164-.662 0-1.191-.525-1.191-1.165v-1.888c0-.64.529-1.165 1.19-1.165Z"/><path fill="#05c2df" stroke="#05040b" stroke-linecap="round" stroke-width=".5" d="M28.334 54.992a1.18 1.18 0 0 1 1.191 1.166v1.888c0 .639-.53 1.164-1.191 1.164-.662 0-1.19-.525-1.19-1.165v-1.888c0-.64.528-1.165 1.19-1.165Z"/><path fill="#05c2df" stroke="#05040b" stroke-linecap="round" stroke-width=".5" d="M16.809 64.43A1.18 1.18 0 0 1 18 65.596v1.888c0 .64-.53 1.164-1.191 1.164-.662 0-1.19-.525-1.19-1.165v-1.888c0-.64.528-1.165 1.19-1.165Z"/><path fill="#05c2df" stroke="#05040b" stroke-linecap="round" stroke-width=".5" d="M22.571 64.43a1.18 1.18 0 0 1 1.191 1.166v1.888c0 .64-.529 1.164-1.19 1.164-.662 0-1.191-.525-1.191-1.165v-1.888c0-.64.529-1.165 1.19-1.165Z"/><path fill="#05c2df" stroke="#05040b" stroke-linecap="round" stroke-width=".5" d="M28.334 64.43a1.18 1.18 0 0 1 1.191 1.166v1.888c0 .64-.53 1.164-1.191 1.164-.662 0-1.19-.525-1.19-1.165v-1.888c0-.64.528-1.165 1.19-1.165Z"/><path fill="#05c2df" stroke="#05040b" stroke-linecap="round" stroke-width=".5" d="M68.675 41.778a1.18 1.18 0 0 1 1.191 1.166v1.888c0 .64-.53 1.165-1.191 1.165-.662 0-1.19-.526-1.19-1.165v-1.888c0-.64.528-1.166 1.19-1.166Z"/><path fill="#05c2df" stroke="#05040b" stroke-linecap="round" stroke-width=".5" d="M68.675 51.216a1.18 1.18 0 0 1 1.191 1.166v1.888c0 .64-.53 1.165-1.191 1.165-.662 0-1.19-.526-1.19-1.165v-1.888c0-.64.528-1.166 1.19-1.166Z"/><path fill="#05c2df" stroke="#05040b" stroke-linecap="round" stroke-width=".5" d="M68.675 60.655a1.18 1.18 0 0 1 1.191 1.166v1.888c0 .639-.53 1.164-1.191 1.164-.662 0-1.19-.525-1.19-1.165V61.82l.005-.119a1.18 1.18 0 0 1 1.185-1.047Z"/><path fill="#05c2df" stroke="#05040b" stroke-linecap="round" stroke-width=".5" d="M68.675 70.093a1.18 1.18 0 0 1 1.191 1.166v1.888c0 .64-.53 1.164-1.191 1.164-.662 0-1.19-.525-1.19-1.165v-1.888c0-.64.528-1.165 1.19-1.165Z"/><path stroke="#05c2df" stroke-linecap="round" d="M42.056 20H30.53"/><path fill="#05c2df" fill-rule="evenodd" d="M56.97 42a1 1 0 0 0-1 1v1h2.035v-1a1 1 0 0 0-1-1Z" clip-rule="evenodd"/><path fill="#05c2df" fill-rule="evenodd" d="M63.076 42a1 1 0 0 0-1 1v1h2.035v-1a1 1 0 0 0-1-1Z" clip-rule="evenodd"/></g><defs><clipPath id="clip0_3495_4339"><path fill="#fff" d="M0 0h85.482v84H0Z"/></clipPath></defs></svg>