<svg xmlns="http://www.w3.org/2000/svg" width="22" height="23" fill="none" viewBox="0 0 22 23"><path fill="#fff" d="M1.374 13.598a6 6 0 0 0-.096 1.021c0 4.223 4.388 7.659 9.676 7.659s9.59-3.436 9.59-7.658c0-.347-.04-.687-.096-1.022.83-.47 1.375-1.4 1.375-2.46 0-1.535-1.147-2.784-2.558-2.784-.644 0-1.25.263-1.714.722-1.607-1.22-3.74-1.996-6.096-2.094l1.223-5.167 2.759 1.05c.04 1.498 1.165 2.704 2.55 2.704 1.41 0 2.557-1.249 2.557-2.784C20.544 1.249 19.397 0 17.987 0c-.984 0-1.829.614-2.257 1.502L11.787.001 10.13 6.995c-2.23.152-4.325.917-5.858 2.08a2.43 2.43 0 0 0-1.714-.722C1.146 8.355 0 9.604 0 11.14c0 1.06.545 1.989 1.374 2.46m13.416-2.46c1.058 0 1.918.938 1.918 2.09 0 1.15-.86 2.088-1.918 2.088-1.057 0-1.918-.937-1.918-2.089s.86-2.088 1.918-2.088m-.273 6.15.546 1.259c-1.2.619-2.62.946-4.109.946s-2.995-.327-4.195-.946l.547-1.258C9.366 18.35 12.456 18.35 14.516 17.288m-7.484-6.15c1.057 0 1.918.938 1.918 2.09 0 1.15-.86 2.088-1.918 2.088s-1.918-.937-1.918-2.089.86-2.088 1.918-2.088"/></svg>