<svg xmlns="http://www.w3.org/2000/svg" width="83" height="83" fill="none" viewBox="0 0 83 83"><g stroke="#05c2df" clip-path="url(#clip0_46929_54)"><path d="M77.467 17.1a5.04 5.04 0 0 1 5.033 5.033 5.04 5.04 0 0 1-5.033 5.033 5.04 5.04 0 0 1-5.033-5.033 5.04 5.04 0 0 1 5.033-5.033Z"/><path d="M5.533 62.75a5.04 5.04 0 0 1 5.033 5.033 5.04 5.04 0 0 1-5.033 5.033A5.04 5.04 0 0 1 .5 67.783a5.04 5.04 0 0 1 5.033-5.033Z"/><path d="M73.978 18.044 63.152 12.63"/><path d="M62.25 72.433a5.04 5.04 0 0 1 5.033 5.033A5.04 5.04 0 0 1 62.25 82.5a5.04 5.04 0 0 1-5.033-5.033 5.04 5.04 0 0 1 5.033-5.033Z"/><path d="m58.486 73.605-10.13-5.4"/><path d="M41.5 37.85a5.04 5.04 0 0 1 5.033 5.033 5.04 5.04 0 0 1-5.033 5.033 5.04 5.04 0 0 1-5.033-5.033A5.04 5.04 0 0 1 41.5 37.85Z"/><path d="m38.253 38.613-7.94-6.135"/><path d="M66.4 36.467c8.114 0 14.717 6.603 14.717 14.717 0 8.113-6.603 14.716-14.717 14.716-8.113 0-14.716-6.603-14.716-14.717 0-8.113 6.603-14.716 14.716-14.716Z"/><path d="M66.4 42a5.04 5.04 0 0 1 5.033 5.033 5.04 5.04 0 0 1-5.033 5.033 5.04 5.04 0 0 1-5.033-5.033A5.04 5.04 0 0 1 66.4 42Z"/><path d="M62.387 55.833h8.026c2.1 0 3.786 1.66 3.786 3.672v3.647a.88.88 0 0 1-.44.764h-.001a14.7 14.7 0 0 1-7.36 1.984c-2.57 0-5.115-.687-7.358-1.985a.88.88 0 0 1-.44-.765v-3.646c0-2.01 1.686-3.67 3.787-3.67Z"/><path d="M33.2 53.067c8.114 0 14.717 6.603 14.717 14.716 0 8.114-6.603 14.717-14.717 14.717s-14.717-6.603-14.717-14.717c0-8.113 6.603-14.716 14.717-14.716Z"/><path d="M33.2 58.6a5.04 5.04 0 0 1 5.033 5.033 5.04 5.04 0 0 1-5.033 5.033 5.04 5.04 0 0 1-5.033-5.033A5.04 5.04 0 0 1 33.2 58.6Z"/><path d="M29.188 72.433h8.026c2.1 0 3.786 1.66 3.786 3.672v3.647a.88.88 0 0 1-.44.764A14.7 14.7 0 0 1 33.2 82.5c-2.571 0-5.116-.687-7.36-1.985a.88.88 0 0 1-.44-.765v-3.646l.005-.187c.101-1.925 1.747-3.484 3.782-3.484Z"/><path d="M15.217 18.483c8.113 0 14.716 6.603 14.717 14.717 0 8.114-6.603 14.717-14.717 14.717S.5 41.314.5 33.2s6.603-14.717 14.717-14.717Z"/><path d="M15.217 24.017a5.04 5.04 0 0 1 5.033 5.033 5.04 5.04 0 0 1-5.033 5.033 5.04 5.04 0 0 1-5.033-5.033 5.04 5.04 0 0 1 5.033-5.033Z"/><path d="M11.204 37.85h8.026c2.1 0 3.786 1.66 3.787 3.672v3.646a.88.88 0 0 1-.44.764 14.7 14.7 0 0 1-7.36 1.984c-2.572 0-5.117-.686-7.36-1.984a.88.88 0 0 1-.44-.765V41.52l.005-.187c.1-1.925 1.747-3.483 3.782-3.483Z"/><path d="M48.417.5c8.114 0 14.717 6.603 14.717 14.717S56.53 29.933 48.417 29.934c-8.114 0-14.717-6.603-14.717-14.717S40.303.5 48.417.5Z"/><path d="M48.416 6.033a5.04 5.04 0 0 1 5.033 5.033 5.04 5.04 0 0 1-5.033 5.033 5.04 5.04 0 0 1-5.033-5.033 5.04 5.04 0 0 1 5.033-5.033Z"/><path d="M44.403 19.867h8.026c2.101 0 3.787 1.66 3.787 3.672v3.646a.88.88 0 0 1-.44.764h-.001a14.7 14.7 0 0 1-7.36 1.984c-2.57 0-5.115-.686-7.358-1.984a.88.88 0 0 1-.44-.765v-3.646c0-2.01 1.685-3.671 3.786-3.671Z"/><path d="m33.404 14.435-8.865 7.217"/><path d="m65.678 36.087-7.217-9.744"/><path d="m52.114 56.296-5.562 4.33"/><path d="M18.344 67.483h-7.518"/><path d="M15.217.5a5.04 5.04 0 0 1 5.033 5.033 5.04 5.04 0 0 1-5.033 5.033 5.04 5.04 0 0 1-5.033-5.033A5.04 5.04 0 0 1 15.217.5Z"/><path d="M14.073 10.826v7.217"/></g><defs><clipPath id="clip0_46929_54"><path fill="#fff" d="M0 0h83v83H0Z"/></clipPath></defs></svg>