<svg xmlns="http://www.w3.org/2000/svg" width="111" height="81" fill="none" viewBox="0 0 111 81"><path stroke="#05c2df" d="M55.02 27.257c7.336 0 13.301 6.075 13.301 13.59s-5.965 13.59-13.301 13.59c-7.338 0-13.303-6.075-13.303-13.59 0-7.516 5.965-13.59 13.303-13.59ZM69.166 26.44c4.574 3.09 7.591 8.388 7.591 14.406s-3.017 11.317-7.591 14.406M69.339 55.112l6.21 8.102"/><path stroke="#05c2df" d="M75.377 63.39a27.28 27.28 0 0 0 12.077-22.72c0-9.49-4.8-17.848-12.077-22.72l-6.211 8.63"/><path stroke="#05c2df" d="M82.278 9.497c9.773 6.609 16.218 17.945 16.218 30.821S92.051 64.531 82.278 71.14"/><path stroke="#05c2df" d="M82.278 9.673 88.489.69c12.683 8.536 21.048 23.176 21.048 39.804s-8.365 31.269-21.048 39.804l-6.383-9.159M40.871 26.44c-4.574 3.09-7.591 8.388-7.591 14.406s3.017 11.317 7.591 14.406M40.7 55.112l-6.212 8.102"/><path stroke="#05c2df" d="M34.66 63.39a27.28 27.28 0 0 1-12.077-22.72c0-9.49 4.8-17.848 12.077-22.72l6.211 8.63"/><path stroke="#05c2df" d="M27.759 9.497C17.987 16.106 11.54 27.442 11.54 40.318S17.987 64.531 27.76 71.14"/><path stroke="#05c2df" d="M27.76 9.673 21.547.69C8.865 9.226.5 23.866.5 40.494s8.365 31.269 21.048 39.804l6.384-9.159"/></svg>