<svg xmlns="http://www.w3.org/2000/svg" width="24" height="18" fill="none" viewBox="0 0 24 18"><path fill="#fff" d="M8.723 17.504c-1.011 0-2.052-.075-3.099-.225-1.844-.265-3.71-1.147-4.239-1.411L0 15.175l1.5-.451c1.64-.493 2.637-.8 3.871-1.278-1.236-.548-2.189-1.533-2.647-2.806l-.35-.97.287.04a5 5 0 0 1-.652-.735c-.59-.82-.903-1.822-.836-2.682l.065-.845.554.196a4.5 4.5 0 0 1-.501-1.286c-.242-1.1-.04-2.27.569-3.294l.482-.81.645.71c2.04 2.24 4.623 3.57 7.689 3.959-.126-.79-.032-1.552.279-2.235.361-.795 1.005-1.47 1.86-1.95.949-.534 2.1-.793 3.241-.728 1.211.068 2.31.483 3.183 1.2.427-.101.74-.21 1.165-.355.256-.088.546-.188.908-.302l1.336-.421-.871 2.275q.085-.006.178-.01l1.427-.06-.844 1.054c-.048.06-.06.078-.077.102-.068.093-.153.21-1.31 1.623-.29.354-.434.815-.407 1.298.102 1.837-.144 3.499-.733 4.939a8.75 8.75 0 0 1-2.565 3.475c-1.417 1.167-3.223 1.966-5.37 2.375-1.052.2-2.183.3-3.353.3"/></svg>